# Blender v2.82 (sub 7) OBJ File: 'arena.blend'
# www.blender.org
mtllib arena.mtl
o Cylinder
v -0.000001 -0.000005 -9.999996
v 1.950902 -0.000005 -9.807849
v 3.826833 -0.000005 -9.238791
v 5.555701 -0.000005 -8.314692
v 7.071066 -0.000005 -7.071064
v 8.314695 -0.000005 -5.555698
v 9.238794 -0.000005 -3.826831
v 9.807852 -0.000005 -1.950900
v 9.999999 -0.000005 0.000003
v 9.807852 -0.000005 1.950905
v 9.238794 -0.000005 3.826836
v 8.314695 -0.000005 5.555706
v 7.071066 -0.000005 7.071071
v 5.555701 -0.000005 8.314700
v 3.826832 -0.000005 9.238800
v 1.950900 -0.000005 9.807857
v -0.000004 -0.000005 10.000004
v -1.950908 -0.000005 9.807856
v -3.826840 -0.000005 9.238797
v -5.555708 -0.000005 8.314696
v -7.071074 -0.000005 7.071067
v -8.314701 -0.000005 5.555700
v -9.238800 -0.000005 3.826830
v -9.807856 -0.000005 1.950898
v -10.000001 -0.000005 -0.000006
v -9.807852 -0.000005 -1.950910
v -9.238792 -0.000005 -3.826841
v -8.314691 -0.000005 -5.555709
v -7.071060 -0.000005 -7.071073
v -5.555692 -0.000005 -8.314700
v -3.826822 -0.000005 -9.238797
v -1.950889 -0.000005 -9.807852
v -1.950889 7.231351 -9.807852
v -3.826822 7.231351 -9.238797
v -5.555692 7.231351 -8.314700
v -7.071060 7.231351 -7.071073
v -8.314691 7.231351 -5.555709
v -9.238792 7.231351 -3.826841
v -9.807852 7.231351 -1.950910
v -10.000001 7.231351 -0.000006
v -9.807856 7.231351 1.950898
v -9.238800 7.231351 3.826830
v -8.314701 7.231351 5.555700
v -7.071074 7.231351 7.071067
v -5.555708 7.231351 8.314696
v -3.826840 7.231351 9.238797
v -1.950908 7.231351 9.807856
v -0.000004 7.231351 10.000004
v 1.950900 7.231351 9.807857
v 3.826832 7.231351 9.238800
v 5.555701 7.231351 8.314700
v 7.071066 7.231351 7.071071
v 8.314695 7.231351 5.555706
v 9.238794 7.231351 3.826836
v 9.807852 7.231351 1.950905
v 9.999999 7.231351 0.000003
v 9.807852 7.231351 -1.950900
v 9.238794 7.231351 -3.826831
v 8.314695 7.231351 -5.555698
v 7.071066 7.231351 -7.071064
v 5.555701 7.231351 -8.314692
v 3.826833 7.231351 -9.238791
v 1.950902 7.231351 -9.807849
v -0.000001 7.231351 -9.999996
v -7.249988 7.231351 -3.003053
v -7.249988 -0.000005 -3.003053
v -6.524815 7.231351 -4.359754
v -6.524815 -0.000005 -4.359754
v 3.003045 7.231349 -7.249991
v 3.003045 -0.000005 -7.249991
v 1.530939 7.231349 -7.696549
v 1.530939 -0.000005 -7.696549
v -7.696548 7.231351 -1.530947
v -7.696548 -0.000005 -1.530947
v 5.548903 7.231349 -5.548903
v 5.548903 -0.000005 -5.548903
v 4.359745 7.231352 6.524820
v 4.359745 -0.000005 6.524820
v 3.003044 7.231352 7.249992
v 3.003044 -0.000005 7.249992
v 6.524820 7.231351 -4.359745
v 6.524820 -0.000005 -4.359745
v 1.530937 7.231352 7.696550
v 1.530937 -0.000005 7.696550
v -3.003048 7.231349 7.249990
v -3.003048 -0.000005 7.249990
v -7.847334 7.231351 -0.000008
v -7.847334 -0.000005 -0.000008
v -3.003034 7.231351 -7.249996
v -3.003034 -0.000005 -7.249996
v -4.359749 7.231349 6.524817
v -4.359749 -0.000005 6.524817
v 7.696550 7.231352 1.530938
v 7.696550 -0.000005 1.530938
v 5.548903 7.231352 5.548903
v 5.548903 -0.000005 5.548903
v 7.249992 7.231352 3.003044
v 7.249992 -0.000005 3.003044
v 7.847334 7.231352 -0.000001
v 7.847334 -0.000005 -0.000001
v -5.548896 7.231351 -5.548910
v -5.548896 -0.000005 -5.548910
v -4.359736 7.231351 -6.524826
v -4.359736 -0.000005 -6.524826
v -0.000003 7.231349 7.847334
v -0.000003 -0.000005 7.847334
v 0.000000 7.231349 -7.847334
v 0.000000 -0.000005 -7.847334
v 7.696549 7.231352 -1.530939
v 7.696549 -0.000005 -1.530939
v 4.359746 7.231349 -6.524820
v 4.359746 -0.000005 -6.524820
v 7.249991 7.231352 -3.003045
v 7.249991 -0.000005 -3.003045
v -7.249994 7.231352 3.003039
v -7.249994 -0.000005 3.003039
v -6.524823 7.231352 4.359741
v -6.524823 -0.000005 4.359741
v -7.696551 7.231351 1.530932
v -7.696551 -0.000005 1.530932
v -5.548907 7.231349 5.548899
v -5.548907 -0.000005 5.548900
v -1.530942 7.231349 7.696549
v -1.530942 -0.000005 7.696549
v 6.524820 7.231352 4.359745
v 6.524820 -0.000005 4.359745
v -1.530927 7.231351 -7.696552
v -1.530927 -0.000005 -7.696552
vt 0.000000 0.000000
vt 0.000000 0.000000
vt 0.000000 0.000000
vt 0.000000 0.000000
vt 0.000000 0.000000
vt 0.000000 0.000000
vt 0.000000 0.000000
vt 0.000000 0.000000
vt 0.000000 0.000000
vt 0.000000 0.000000
vt 0.000000 0.000000
vt 0.000000 0.000000
vt 0.000000 0.000000
vt 0.000000 0.000000
vt 0.000000 0.000000
vt 0.000000 0.000000
vt 0.000000 0.000000
vt 0.000000 0.000000
vt 0.000000 0.000000
vt 0.000000 0.000000
vt 0.000000 0.000000
vt 0.000000 0.000000
vt 0.000000 0.000000
vt 0.000000 0.000000
vt 0.000000 0.000000
vt 0.000000 0.000000
vt 0.000000 0.000000
vt 0.000000 0.000000
vt 0.000000 0.000000
vt 0.000000 0.000000
vt 0.000000 0.000000
vt 0.000000 0.000000
vt 0.000000 0.000000
vt 0.000000 0.000000
vt 0.000000 0.000000
vt 0.000000 0.000000
vt 0.000000 0.000000
vt 0.000000 0.000000
vt 0.000000 0.000000
vt 0.000000 0.000000
vt 0.000000 0.000000
vt 0.000000 0.000000
vt 0.000000 0.000000
vt 0.000000 0.000000
vt 0.000000 0.000000
vt 0.000000 0.000000
vt 0.000000 0.000000
vt 0.000000 0.000000
vt 0.000000 0.000000
vt 0.000000 0.000000
vt 0.000000 0.000000
vt 0.000000 0.000000
vt 0.000000 0.000000
vt 0.000000 0.000000
vt 0.000000 0.000000
vt 0.000000 0.000000
vt 0.000000 0.000000
vt 0.000000 0.000000
vt 0.000000 0.000000
vt 0.000000 0.000000
vt 0.000000 0.000000
vt 0.000000 0.000000
vt 0.000000 0.000000
vt 0.000000 0.000000
vt 0.000000 0.000000
vt 0.000000 0.000000
vt 0.000000 0.000000
vt 0.000000 0.000000
vt 0.000000 0.000000
vt 0.000000 0.000000
vt 0.000000 0.000000
vt 0.000000 0.000000
vt 0.000000 0.000000
vt 0.000000 0.000000
vt 0.000000 0.000000
vt 0.000000 0.000000
vt 0.000000 0.000000
vt 0.000000 0.000000
vt 0.000000 0.000000
vt 0.000000 0.000000
vt 0.000000 0.000000
vt 0.000000 0.000000
vt 0.000000 0.000000
vt 0.000000 0.000000
vt 0.000000 0.000000
vt 0.000000 0.000000
vt 0.000000 0.000000
vt 0.000000 0.000000
vt 0.000000 0.000000
vt 0.000000 0.000000
vt 0.000000 0.000000
vt 0.000000 0.000000
vt 0.000000 0.000000
vt 0.000000 0.000000
vt 0.000000 0.000000
vt 0.000000 0.000000
vt 0.000000 0.000000
vt 0.000000 0.000000
vt 0.718750 0.750000
vt 0.718750 0.980376
vt 0.750000 0.980376
vt 0.750000 0.750000
vt 0.625000 0.750000
vt 0.625000 0.980376
vt 0.656250 0.980376
vt 0.656250 0.750000
vt 0.687500 0.980376
vt 0.687500 0.750000
vt 0.218750 0.750000
vt 0.218750 0.980376
vt 0.250000 0.980376
vt 0.250000 0.750000
vt 0.781250 0.750000
vt 0.781250 0.980376
vt 0.812500 0.980376
vt 0.812500 0.750000
vt 0.843750 0.750000
vt 0.843750 0.980376
vt 0.875000 0.980376
vt 0.875000 0.750000
vt 0.000000 0.750000
vt 0.000000 0.980376
vt 0.031250 0.980376
vt 0.031250 0.750000
vt 0.468750 0.750000
vt 0.468750 0.980376
vt 0.500000 0.980376
vt 0.500000 0.750000
vt 0.156250 0.750000
vt 0.156250 0.980376
vt 0.187500 0.980376
vt 0.187500 0.750000
vt 0.531250 0.980376
vt 0.531250 0.750000
vt 0.062500 0.980376
vt 0.062500 0.750000
vt 0.906250 0.980376
vt 0.906250 0.750000
vt 0.406250 0.750000
vt 0.406250 0.980376
vt 0.437500 0.980376
vt 0.437500 0.750000
vt 0.937500 0.980376
vt 0.937500 0.750000
vt 0.593750 0.750000
vt 0.593750 0.980376
vt 0.093750 0.750000
vt 0.093750 0.980376
vt 0.125000 0.980376
vt 0.125000 0.750000
vt 0.562500 0.750000
vt 0.562500 0.980376
vt 0.375000 0.750000
vt 0.375000 0.980376
vt 0.312500 0.750000
vt 0.312500 0.980376
vt 0.343750 0.980376
vt 0.343750 0.750000
vt 0.968750 0.750000
vt 0.968750 0.980376
vt 1.000000 0.980376
vt 1.000000 0.750000
vt 0.281250 0.980376
vt 0.281250 0.750000
vt 0.000000 0.000000
vt 0.000000 0.000000
vt 0.000000 0.000000
vt 0.000000 0.000000
vt 0.000000 0.000000
vt 0.000000 0.000000
vt 0.000000 0.000000
vt 0.000000 0.000000
vt 0.000000 0.000000
vt 0.000000 0.000000
vt 0.000000 0.000000
vt 0.000000 0.000000
vt 0.000000 0.000000
vt 0.000000 0.000000
vt 0.000000 0.000000
vt 0.000000 0.000000
vt 0.000000 0.000000
vt 0.000000 0.000000
vt 0.000000 0.000000
vt 0.000000 0.000000
vt 0.000000 0.000000
vt 0.000000 0.000000
vt 0.000000 0.000000
vt 0.000000 0.000000
vt 0.000000 0.000000
vt 0.000000 0.000000
vt 0.000000 0.000000
vt 0.000000 0.000000
vt 0.000000 0.000000
vt 0.000000 0.000000
vn -0.8819 0.0000 -0.4714
vn -0.2903 0.0000 0.9569
vn -0.2903 0.0000 -0.9569
vn -0.8819 0.0000 0.4714
vn 0.7730 0.0000 0.6344
vn 0.4714 0.0000 -0.8819
vn -0.9569 0.0000 -0.2903
vn 0.0980 0.0000 0.9952
vn -0.0980 0.0000 0.9952
vn 0.9569 0.0000 -0.2903
vn -0.4714 0.0000 -0.8819
vn -0.7730 0.0000 0.6344
vn 0.8819 0.0000 0.4714
vn 0.2903 0.0000 -0.9569
vn -0.9952 0.0000 -0.0980
vn 0.2903 0.0000 0.9569
vn 0.8819 0.0000 -0.4714
vn -0.6344 0.0000 -0.7730
vn -0.6344 0.0000 0.7730
vn 0.9569 0.0000 0.2903
vn 0.0980 0.0000 -0.9952
vn -0.9952 0.0000 0.0980
vn 0.4714 0.0000 0.8819
vn 0.7730 0.0000 -0.6344
vn -0.7730 0.0000 -0.6344
vn -0.4714 0.0000 0.8819
vn 0.9952 0.0000 0.0980
vn -0.0980 0.0000 -0.9952
vn -0.9569 0.0000 0.2903
vn 0.6344 0.0000 0.7730
vn 0.6344 0.0000 -0.7730
vn 0.9952 0.0000 -0.0980
vn -0.0000 -1.0000 0.0000
vn 0.0000 1.0000 -0.0000
usemtl None
s off
f 11/1/1 12/2/1 53/3/1 54/4/1
f 2/5/2 3/6/2 62/7/2 63/8/2
f 15/9/3 16/10/3 49/11/3 50/12/3
f 6/13/4 7/14/4 58/15/4 59/16/4
f 28/17/5 29/18/5 36/19/5 37/20/5
f 19/21/6 20/22/6 45/23/6 46/24/6
f 10/25/7 11/1/7 54/4/7 55/26/7
f 32/27/8 1/28/8 64/29/8 33/30/8
f 1/28/9 2/5/9 63/8/9 64/29/9
f 23/31/10 24/32/10 41/33/10 42/34/10
f 14/35/11 15/9/11 50/12/11 51/36/11
f 5/37/12 6/13/12 59/16/12 60/38/12
f 27/39/13 28/17/13 37/20/13 38/40/13
f 18/41/14 19/21/14 46/24/14 47/42/14
f 9/43/15 10/25/15 55/26/15 56/44/15
f 31/45/16 32/27/16 33/30/16 34/46/16
f 22/47/17 23/31/17 42/34/17 43/48/17
f 13/49/18 14/35/18 51/36/18 52/50/18
f 4/51/19 5/37/19 60/38/19 61/52/19
f 26/53/20 27/39/20 38/40/20 39/54/20
f 17/55/21 18/41/21 47/42/21 48/56/21
f 8/57/22 9/43/22 56/44/22 57/58/22
f 30/59/23 31/45/23 34/46/23 35/60/23
f 21/61/24 22/47/24 43/48/24 44/62/24
f 12/2/25 13/49/25 52/50/25 53/3/25
f 3/6/26 4/51/26 61/52/26 62/7/26
f 25/63/27 26/53/27 39/54/27 40/64/27
f 16/10/28 17/55/28 48/56/28 49/11/28
f 7/14/29 8/57/29 57/58/29 58/15/29
f 29/18/30 30/59/30 35/60/30 36/19/30
f 20/22/31 21/61/31 44/62/31 45/23/31
f 24/32/32 25/63/32 40/64/32 41/33/32
f 33/30/33 64/29/33 63/8/33 62/7/33 61/52/33 60/38/33 59/16/33 58/15/33 57/58/33 56/44/33 99/65/33 109/66/33 113/67/33 81/68/33 75/69/33 111/70/33 69/71/33 71/72/33 107/73/33 127/74/33 89/75/33 103/76/33 101/77/33 67/78/33 65/79/33 73/80/33 87/81/33 40/64/33 39/54/33 38/40/33 37/20/33 36/19/33 35/60/33 34/46/33
f 1/28/34 32/27/34 31/45/34 30/59/34 29/18/34 28/17/34 27/39/34 26/53/34 25/63/34 88/82/34 74/83/34 66/84/34 68/85/34 102/86/34 104/87/34 90/88/34 128/89/34 108/90/34 72/91/34 70/92/34 112/93/34 76/94/34 82/95/34 114/96/34 110/97/34 100/98/34 9/43/34 8/57/34 7/14/34 6/13/34 5/37/34 4/51/34 3/6/34 2/5/34
f 94/99/15 93/100/15 99/101/15 100/102/15
f 96/103/25 95/104/25 125/105/25 126/106/25
f 126/106/1 125/105/1 97/107/1 98/108/1
f 74/109/27 73/110/27 87/111/27 88/112/27
f 110/113/29 109/114/29 113/115/29 114/116/29
f 100/102/22 99/101/22 109/114/22 110/113/22
f 82/117/12 81/118/12 75/119/12 76/120/12
f 108/121/8 107/122/8 127/123/8 128/124/8
f 124/125/21 123/126/21 105/127/21 106/128/21
f 68/129/13 67/130/13 65/131/13 66/132/13
f 106/128/28 105/127/28 83/133/28 84/134/28
f 128/124/16 127/123/16 89/135/16 90/136/16
f 76/120/19 75/119/19 111/137/19 112/138/19
f 92/139/6 91/140/6 85/141/6 86/142/6
f 112/138/26 111/137/26 69/143/26 70/144/26
f 78/145/18 77/146/18 95/104/18 96/103/18
f 104/147/30 103/148/30 101/149/30 102/150/30
f 66/132/20 65/131/20 73/110/20 74/109/20
f 80/151/11 79/152/11 77/146/11 78/145/11
f 122/153/31 121/154/31 91/140/31 92/139/31
f 116/155/17 115/156/17 117/157/17 118/158/17
f 72/159/9 71/160/9 107/161/9 108/162/9
f 114/116/4 113/115/4 81/118/4 82/117/4
f 88/112/32 87/111/32 119/163/32 120/164/32
f 98/108/7 97/107/7 93/100/7 94/99/7
f 86/142/14 85/141/14 123/126/14 124/125/14
f 90/136/23 89/135/23 103/148/23 104/147/23
f 70/144/2 69/143/2 71/160/2 72/159/2
f 84/134/3 83/133/3 79/152/3 80/151/3
f 120/164/10 119/163/10 115/156/10 116/155/10
f 40/64/33 87/81/33 119/165/33 115/166/33 117/167/33 121/168/33 91/169/33 85/170/33 123/171/33 105/172/33 83/173/33 79/174/33 77/175/33 95/176/33 125/177/33 97/178/33 93/179/33 99/65/33 56/44/33 55/26/33 54/4/33 53/3/33 52/50/33 51/36/33 50/12/33 49/11/33 48/56/33 47/42/33 46/24/33 45/23/33 44/62/33 43/48/33 42/34/33 41/33/33
f 102/150/5 101/149/5 67/130/5 68/129/5
f 118/158/24 117/157/24 121/154/24 122/153/24
f 9/43/34 100/98/34 94/180/34 98/181/34 126/182/34 96/183/34 78/184/34 80/185/34 84/186/34 106/187/34 124/188/34 86/189/34 92/190/34 122/191/34 118/192/34 116/193/34 120/194/34 88/82/34 25/63/34 24/32/34 23/31/34 22/47/34 21/61/34 20/22/34 19/21/34 18/41/34 17/55/34 16/10/34 15/9/34 14/35/34 13/49/34 12/2/34 11/1/34 10/25/34
